PathFileType	4	(X/Y/Z)	C:\Users\°ÂÌØÂü\Desktop\20210112\bx_n_0_501-Unnamed.trc
DataRate	CameraRate	NumFrames	NumMarkers	Units	OrigDataRate	OrigDataStartFrame	OrigNumFrames
50.00	50.00	       5	0	mm	50.00	255	       339
Frame#	Time	
		

255	5.080	-748.90875	93.31870	1856.44971	-708.04156	265.18863	745.77704	-760.38550	268.69159	1535.56787	-619.08990	95.09531	1362.21497	-706.96368	277.54202	877.03003	-754.31207	-25.50745	206.32741	-664.35999	15.43642	520.19598	-737.62457	249.29552	642.96753				-596.41272	-0.65042	809.09131	-768.19727	258.29199	500.61548	-547.11316	212.61604	165.27527	-548.17529	-13.28816	165.41664	-678.57831	155.65388	158.96306	-601.33362	36.12819	169.53610	-678.03082	56.29694	161.34883	-795.79602	181.58282	183.89932	-761.59637	225.40547	204.85600	-589.05914	184.26308	174.34651	-882.79706	296.06219	144.43631	-733.61078	243.36813	576.22931	-640.47601	274.09445	159.69695	-602.11407	274.34140	159.81624	-528.13666	304.30460	146.43042	-719.36523	-89.20361	1546.62781	-821.86688	78.39098	1061.66577	-609.38098	211.36302	797.49811	-699.09375	70.20418	577.10950	-795.07343	31.09207	174.15253	-747.94037	-55.65584	486.74475	-876.12219	-78.89765	141.41621				-723.08527	68.37581	217.32716	-700.37030	-41.61214	615.20245	-705.68146	-39.41518	567.98541	-718.51910	143.82802	218.71883				-599.97797	-61.59506	159.88011	-642.03131	-59.92088	162.51045	-681.68408	-66.60674	758.43250	-517.98566	-73.08208	143.18445							-612.34973	-12.29410	1056.22791	-630.93732	232.34871	1069.83911				-684.98755	195.20445	536.32227	-667.45905	-80.40549	874.51422	
256	5.100	-750.14111	93.45013	1856.17700	-707.09778	264.42700	745.58344	-761.55670	268.91867	1534.96741	-619.10779	95.10413	1362.44067	-705.89435	277.52957	877.01807	-754.24829	-25.34392	206.48471	-663.57971	15.46182	520.01074	-736.90997	248.97890	643.23822				-594.80457	-0.38561	809.34613	-767.91827	258.04330	500.49301	-547.14368	212.62538	165.23277	-548.09918	-13.26172	165.31009	-678.57831	155.65388	158.96306	-601.38702	36.26586	169.50104	-678.10297	56.45031	161.26137	-795.88904	181.23613	183.79938	-761.57745	225.21262	205.06110	-589.09052	184.18900	174.29457	-882.77734	296.19269	144.57732	-733.08771	243.17903	576.39825	-640.57123	274.15363	159.66402	-602.11407	274.34140	159.81624	-528.30585	304.11691	146.33821	-720.76221	-89.11478	1546.54175	-820.43036	77.71635	1061.35583	-608.15588	211.20868	797.38483	-698.96777	70.12059	577.19342	-794.85376	31.12932	173.99098	-747.03748	-55.71173	486.69785	-876.12219	-78.89765	141.41621				-722.83148	68.49257	217.09428	-698.75183	-41.64871	615.11536	-704.49353	-39.59674	568.16150	-718.80548	143.95573	218.61267				-599.86127	-61.67490	159.82774	-641.90216	-59.88622	162.65056	-680.30615	-66.44781	758.01324	-517.94177	-72.92817	143.09164							-610.94647	-12.20663	1056.58386	-629.90765	232.39186	1069.59912				-684.31000	194.98656	536.21344	-666.03857	-80.48289	874.43988	
257	5.120	-751.28754	93.81123	1855.95618	-706.02179	264.51352	745.88123	-762.78510	268.86539	1534.18384	-619.14514	95.07226	1362.67029	-704.64642	277.67981	877.32050	-754.12311	-25.50210	206.45229	-662.66553	15.46504	520.01648	-736.06372	248.95198	643.51440				-593.70819	-0.33742	808.95544	-767.53174	257.61136	500.80426	-547.02551	212.71045	165.14894	-547.83966	-12.95596	165.31532	-678.57831	155.65388	158.96306	-601.11774	36.12386	169.34972	-677.59668	56.39534	161.18001	-795.86700	181.28844	183.76723	-761.54150	225.07620	205.17941	-588.97632	184.19746	174.40614	-882.79706	296.06219	144.43631	-732.65527	242.87968	576.50250	-640.36359	274.14386	159.76192	-602.03192	274.21732	159.82158	-528.22577	304.11572	146.48291	-721.66302	-89.31258	1546.46167	-819.07098	77.60641	1061.07727	-607.22498	210.94777	796.88501	-697.90717	70.01571	577.16199	-794.80383	31.09204	174.07031	-746.45978	-55.92274	486.75186	-876.14905	-78.79788	141.54057				-722.85608	68.42014	217.17923	-698.22357	-41.79665	614.78741	-703.97186	-39.33195	567.66901	-718.85297	143.82181	218.67142				-599.97797	-61.59506	159.88011	-641.90216	-59.88622	162.65056	-679.13196	-66.63619	758.10278	-517.99066	-73.04592	143.03880							-609.49146	-12.90825	1056.78210	-628.37225	232.21849	1069.57300				-683.76880	194.76230	536.39392	-664.53259	-81.00868	874.47321	
258	5.140	-752.09375	94.01585	1855.78442	-705.24323	264.78104	745.77454	-763.60492	269.08359	1533.59436	-619.22693	95.25806	1362.85327	-703.77728	277.06934	876.94360	-754.12311	-25.50210	206.45229	-662.10394	15.37843	520.10321	-735.56610	248.72110	643.36237				-592.35004	-0.22041	808.57648	-767.00226	257.26367	501.06378	-546.93951	212.69362	165.35367	-547.75446	-12.81137	165.35069	-678.57831	155.65388	158.96306	-601.09869	36.17114	169.26088	-677.82471	56.55498	161.01097	-795.96417	181.18420	184.02776	-761.71094	224.97188	205.15234	-589.01080	184.11578	174.24986	-882.59625	296.22037	144.63243	-732.37805	242.43721	576.35803	-640.33264	273.89243	160.01131	-601.94977	274.32523	159.78456	-528.21887	304.07733	146.44493	-722.84338	-89.10850	1546.32715	-818.04517	77.16944	1060.80420	-606.42932	210.28215	796.53406	-697.28247	70.18027	577.04578	-795.25128	31.03659	174.49747	-745.89172	-55.80686	486.54916	-876.12219	-78.89765	141.41621				-722.53143	68.54853	217.21458	-697.34222	-42.05013	614.58496	-702.83344	-39.23722	567.04083	-718.90619	143.75192	218.35730				-599.88776	-61.63047	159.77345	-641.90216	-59.88622	162.65056	-677.62360	-66.97943	758.21814	-517.98566	-73.08208	143.18445							-608.41180	-13.02523	1056.55957	-627.33453	231.95035	1069.40405				-683.20337	194.68721	535.74957	-662.89740	-80.86082	874.17706	
259	5.160	-753.02936	94.61480	1855.51086	-704.46838	264.58582	746.06567	-764.64227	269.15057	1533.19910	-619.29462	94.79694	1363.05896	-702.72803	276.61536	876.76398	-753.77124	-25.41859	206.16074	-661.48340	15.56037	519.74567	-734.76294	248.29407	643.44409				-591.31818	-0.25454	808.57166	-766.54712	256.91830	501.19415	-546.91083	212.56358	165.24448	-547.85779	-12.36839	165.45084	-678.58093	155.55977	158.89647	-601.06744	36.33419	169.18268	-677.76331	56.54176	160.81972	-795.85510	181.12285	184.12167	-761.65729	224.66626	205.00844	-589.01080	184.11578	174.24986	-882.54767	296.21411	144.67567	-731.90668	242.42641	576.56189	-640.37286	274.06317	159.81787	-601.93188	274.38766	159.78987	-528.04968	304.26501	146.53712	-723.73975	-89.12053	1546.12207	-817.02252	76.80125	1060.64368	-605.64362	210.25282	796.54175	-696.61011	70.02074	577.07587	-795.30945	31.09633	174.44389	-745.29535	-55.97454	486.62521	-876.12219	-78.89765	141.41621				-722.53143	68.54853	217.21458	-696.10657	-42.00861	614.63782	-701.98792	-39.42031	566.89429	-719.10944	143.71390	218.29648				-599.86127	-61.67490	159.82774	-641.82843	-59.77242	162.77731	-676.68530	-67.21095	758.09259	-518.05658	-73.11768	143.04790							-607.25262	-13.53591	1056.89685	-626.28033	231.70218	1069.48645				-682.61285	194.34198	535.46936	-661.57764	-80.67718	873.53235	
